<?xml version="1.0" encoding="utf-8"?>
<!-- Generator: Adobe Illustrator 24.0.1, SVG Export Plug-In . SVG Version: 6.00 Build 0)  -->
<svg version="1.1" id="Layer_1" xmlns="http://www.w3.org/2000/svg" xmlns:xlink="http://www.w3.org/1999/xlink" x="0px" y="0px"
	 viewBox="0 0 320 320" style="enable-background:new 0 0 320 320;" xml:space="preserve">
<style type="text/css">
	.st0{fill:none;stroke:#000000;stroke-width:8;stroke-linecap:round;stroke-miterlimit:10;}
</style>
<g id="Large">
	<g>
		<path class="st0" d="M13.1,116.8c-4,13.7-6.2,28.2-6.2,43.2c0,16.9,2.7,33.2,7.8,48.4"/>
		<path class="st0" d="M158.1,7C98.4,7.7,46.8,42.6,22.2,93.1"/>
		<path class="st0" d="M312.8,155.6C310.7,81.2,255.3,20,183.5,8.8"/>
		<path class="st0" d="M150.8,290.6c-3,8.4-6.1,15.6-8.8,21.3"/>
		<path class="st0" d="M159.8,159.9c0,0,10,40.4,2.6,86.3c-1.1,6.9-2.5,13.6-4.1,19.9"/>
		<path class="st0" d="M189.1,237.6c-0.3,2.9-0.7,5.8-1.2,8.7c-4.6,28.6-12.8,52.8-18.2,66.6"/>
		<path class="st0" d="M115.8,306.4c7.2-14.1,16-35.2,20.3-60c6.3-36.6,0.8-70.1-1.3-81.9c-0.3-1.5-0.4-3-0.4-4.5
			c0-14.1,11.4-25.5,25.5-25.5c12.1,0,22.2,8.4,24.8,19.7c0,0,5.9,25.8,5.9,58"/>
		<path class="st0" d="M291.8,205.8c0.2,10.2,0.1,21.1-0.6,32.6"/>
		<path class="st0" d="M109.8,42.7c15.4-6.5,32.3-10.2,50-10.2c64.4,0,117.7,48,126.4,109.9c0,0,2.8,14.8,4.4,37.8"/>
		<path class="st0" d="M31.9,243.8c1.5-3.9,2.9-8,3.9-12.4c3.7-15.8,0.6-38.1-1.6-50.3c-1.2-6.9-1.8-14-1.8-21.2
			c0-43.6,21.9-82.1,55.3-105.1"/>
		<path class="st0" d="M185.2,61.2c-8.1-2.1-16.6-3.2-25.4-3.2c-56.3,0-102,45.6-102,102c0,5.3,0.4,10.5,1.2,15.5
			c2.4,13.3,5.6,35.9,1.4,58.8c-2.2,12.1-6.2,22.8-10.7,31.9"/>
		<path class="st0" d="M261.5,274.2c0.9-5.3,1.7-10.8,2.4-16.4c7.4-58.9-3.3-113.2-3.3-113.2c-4.8-32-24.5-59.1-51.8-74.1"/>
		<path class="st0" d="M232.3,135.6c1,2.9,1.8,5.9,2.4,8.9c3,15.6,9.3,54.2,5.2,96.9c-2,20.5-5.8,39.1-9.8,54.3"/>
		<path class="st0" d="M87.1,226.9c3.1-29.1-2.3-52-2.3-52c-1-4.8-1.5-9.8-1.5-14.9c0-42.2,34.2-76.5,76.5-76.5
			c24.5,0,46.4,11.6,60.4,29.5"/>
		<path class="st0" d="M69.7,283.6c4.6-8.9,9.2-19.7,12.6-31.6"/>
		<path class="st0" d="M142.3,112.1c5.5-2,11.4-3.1,17.5-3.1c24.6,0,45.2,17.3,49.9,40.5c2.7,13.1,9.2,50.6,4.6,92.5
			c-2.9,26.6-9.3,49.7-14.8,65.8"/>
		<path class="st0" d="M92,297.1c7.6-14.5,15.4-33.4,18.7-54.3c5-31.5,1.2-59.8-1.1-73.7c-0.6-3-0.8-5.9-0.8-9.2
			c0-12.9,4.8-24.6,12.6-33.6"/>
	</g>
</g>
</svg>
